#N canvas 973 421 467 398 12;
#X obj 13 93 shimmer~;
#X obj 13 40 tgl 15 0 empty \$0-done playback 17 7 0 10 #fcfcfc #000000
#000000 0 1;
#X obj 157 41 bng 15 250 50 0 empty empty select\\\ file 17 7 0 10
#fcfcfc #000000 #000000;
#X obj 85 40 tgl 15 0 empty empty loop 17 7 0 10 #fcfcfc #000000 #000000
0 1;
#X obj 13 125 dac~;
#X obj 338 129 qlist;
#X msg 260 99 bang;
#X obj 338 189 print qlist;
#X obj 268 257 i;
#X obj 303 257 + 1;
#X obj 260 129 t b b;
#X msg 292 159 0;
#X floatatom 268 287 5 0 0 0 - - - 0;
#X obj 250 219 metro 1000;
#X msg 250 159 1;
#X obj 292 189 t f f;
#X obj 370 159 print done;
#X msg 338 99 read shimmer.txt;
#X obj 370 50 loadbang;
#X obj 13 63 fileplay~ shimmer.wav;
#X text 159 130 Bang to start;
#X text 355 28 Load qlist;
#X connect 0 0 4 0;
#X connect 0 1 4 1;
#X connect 1 0 19 0;
#X connect 2 0 19 2;
#X connect 3 0 19 1;
#X connect 5 0 7 0;
#X connect 5 1 16 0;
#X connect 6 0 5 0;
#X connect 6 0 10 0;
#X connect 8 0 9 0;
#X connect 8 0 12 0;
#X connect 9 0 8 1;
#X connect 10 0 14 0;
#X connect 10 1 11 0;
#X connect 11 0 15 0;
#X connect 13 0 8 0;
#X connect 14 0 13 0;
#X connect 15 0 13 0;
#X connect 15 1 8 1;
#X connect 17 0 5 0;
#X connect 18 0 17 0;
#X connect 19 0 0 0;
#X connect 19 1 0 1;
